<svg width="640" height="826" viewBox="0 0 640 826" fill="none" xmlns="http://www.w3.org/2000/svg">
<path d="M100 775.694C100 803.308 77.6142 825.694 50 825.694C22.3858 825.694 0 803.308 0 775.694C0 748.08 22.3858 725.694 50 725.694C77.6142 725.694 100 748.08 100 775.694Z" fill="#BD1E2D"/>
<path d="M55.832 755.102C55.64 755.582 55.16 755.918 54.392 756.11C53.672 756.302 52.688 756.182 51.44 755.75L54.032 755.39C52.592 756.542 50.768 757.766 48.56 759.062C46.352 760.358 43.928 761.63 41.288 762.878C38.696 764.078 36.056 765.182 33.368 766.19C30.728 767.15 28.256 767.942 25.952 768.566V767.846H30.488C30.296 770.63 29.816 772.838 29.048 774.47C28.28 776.102 27.344 777.158 26.24 777.638L21.704 766.55C21.704 766.55 22.088 766.478 22.856 766.334C23.624 766.19 24.248 765.998 24.728 765.758C26.312 765.182 28.04 764.246 29.912 762.95C31.784 761.606 33.608 760.118 35.384 758.486C37.208 756.806 38.816 755.15 40.208 753.518C41.648 751.838 42.728 750.35 43.448 749.054L55.832 755.102ZM23.36 766.694C25.472 766.598 28.232 766.454 31.64 766.262C35.048 766.07 38.936 765.83 43.304 765.542C47.72 765.254 52.424 764.918 57.416 764.534C62.408 764.15 67.52 763.742 72.752 763.31L72.824 764.318C68.264 765.854 62.096 767.654 54.32 769.718C46.592 771.782 37.496 774.014 27.032 776.414L23.36 766.694ZM73.112 795.998C73.112 795.998 73.472 796.286 74.192 796.862C74.912 797.39 75.824 798.086 76.928 798.95C78.08 799.814 79.256 800.726 80.456 801.686C81.704 802.646 82.832 803.558 83.84 804.422C83.648 805.19 82.928 805.574 81.68 805.574H16.736L16.16 803.558H67.136L73.112 795.998ZM56.984 754.958C62.024 755.678 66.104 756.782 69.224 758.27C72.392 759.71 74.768 761.318 76.352 763.094C77.984 764.87 78.968 766.622 79.304 768.35C79.64 770.03 79.472 771.494 78.8 772.742C78.176 773.99 77.192 774.806 75.848 775.19C74.504 775.526 72.944 775.238 71.168 774.326C70.4 772.646 69.464 770.966 68.36 769.286C67.256 767.558 66.032 765.878 64.688 764.246C63.344 762.566 61.952 760.982 60.512 759.494C59.12 758.006 57.752 756.662 56.408 755.462L56.984 754.958ZM57.704 773.678C57.656 774.158 57.464 774.59 57.128 774.974C56.792 775.31 56.12 775.574 55.112 775.766V804.35H44.096V772.598L57.704 773.678ZM68.504 777.782C68.504 777.782 68.84 778.046 69.512 778.574C70.232 779.102 71.144 779.798 72.248 780.662C73.352 781.478 74.48 782.366 75.632 783.326C76.832 784.286 77.936 785.174 78.944 785.99C78.752 786.758 78.032 787.142 76.784 787.142H23.432L22.856 785.126H62.744L68.504 777.782ZM71.6 741.278C71.6 741.278 71.936 741.542 72.608 742.07C73.328 742.598 74.24 743.27 75.344 744.086C76.448 744.902 77.576 745.766 78.728 746.678C79.928 747.59 81.032 748.454 82.04 749.27C81.848 750.038 81.152 750.422 79.952 750.422H18.824L18.248 748.406H65.84L71.6 741.278Z" fill="white"/>
<path d="M208 775.694C208 803.308 185.614 825.694 158 825.694C130.386 825.694 108 803.308 108 775.694C108 748.08 130.386 725.694 158 725.694C185.614 725.694 208 748.08 208 775.694Z" fill="#BD1E2D"/>
<path d="M164.984 772.022C164.984 772.022 165.248 772.238 165.776 772.67C166.352 773.102 167.024 773.63 167.792 774.254C168.608 774.83 169.352 775.43 170.024 776.054C169.832 776.822 169.232 777.206 168.224 777.206H146.84L146.264 775.19H162.248L164.984 772.022ZM177.656 744.086C177.512 744.566 177.224 744.95 176.792 745.238C176.36 745.478 175.736 745.598 174.92 745.598C173.288 746.558 171.296 747.734 168.944 749.126C166.64 750.47 164.432 751.622 162.32 752.582H161.672C162.056 750.95 162.44 749.006 162.824 746.75C163.208 744.446 163.52 742.478 163.76 740.846L177.656 744.086ZM156.272 759.71C156.272 760.958 156.128 762.254 155.84 763.598C155.552 764.894 154.952 766.166 154.04 767.414C153.128 768.614 151.76 769.766 149.936 770.87C148.16 771.926 145.76 772.838 142.736 773.606L142.232 772.814C144.056 771.662 145.376 770.39 146.192 768.998C147.056 767.558 147.608 766.07 147.848 764.534C148.088 762.95 148.208 761.342 148.208 759.71V751.718H156.272V759.71ZM168.08 751.718C168.08 752.102 168.08 752.51 168.08 752.942C168.08 753.326 168.08 753.662 168.08 753.95V764.39C168.08 764.726 168.128 764.99 168.224 765.182C168.368 765.326 168.632 765.398 169.016 765.398H170.384C170.624 765.398 170.864 765.398 171.104 765.398C171.392 765.398 171.632 765.398 171.824 765.398C171.968 765.398 172.184 765.398 172.472 765.398C172.808 765.35 173.072 765.326 173.264 765.326C173.504 765.278 173.768 765.23 174.056 765.182C174.392 765.134 174.68 765.086 174.92 765.038H175.568L175.928 765.11C176.888 765.446 177.536 765.83 177.872 766.262C178.208 766.694 178.376 767.222 178.376 767.846C178.376 768.71 178.088 769.406 177.512 769.934C176.984 770.462 176.048 770.846 174.704 771.086C173.408 771.326 171.608 771.446 169.304 771.446H166.208C164.384 771.446 163.04 771.254 162.176 770.87C161.312 770.486 160.76 769.862 160.52 768.998C160.28 768.086 160.16 766.91 160.16 765.47V751.718H168.08ZM178.52 781.166V783.182H137.408V781.166H178.52ZM140.216 741.71C143.672 741.326 146.432 741.398 148.496 741.926C150.56 742.454 152.072 743.222 153.032 744.23C153.992 745.238 154.472 746.318 154.472 747.47C154.52 748.574 154.208 749.582 153.536 750.494C152.864 751.406 151.904 752.03 150.656 752.366C149.456 752.654 148.112 752.438 146.624 751.718C146.24 750.518 145.664 749.342 144.896 748.19C144.176 746.99 143.36 745.862 142.448 744.806C141.536 743.75 140.624 742.862 139.712 742.142L140.216 741.71ZM137.696 792.974C141.536 792.638 144.608 792.806 146.912 793.478C149.264 794.102 150.968 795.014 152.024 796.214C153.128 797.366 153.704 798.59 153.752 799.886C153.8 801.182 153.464 802.334 152.744 803.342C152.024 804.35 151.016 804.998 149.72 805.286C148.424 805.622 146.96 805.382 145.328 804.566C144.896 803.174 144.248 801.782 143.384 800.39C142.52 798.998 141.56 797.702 140.504 796.502C139.448 795.254 138.368 794.222 137.264 793.406L137.696 792.974ZM177.584 784.838C177.536 785.366 177.32 785.774 176.936 786.062C176.552 786.35 175.976 786.566 175.208 786.71V798.734C175.208 800.846 174.92 802.646 174.344 804.134C173.816 805.622 172.688 806.798 170.96 807.662C169.28 808.526 166.688 809.102 163.184 809.39C163.088 807.902 162.92 806.63 162.68 805.574C162.44 804.518 162.032 803.63 161.456 802.91C160.88 802.238 160.136 801.662 159.224 801.182C158.36 800.654 156.992 800.222 155.12 799.886V799.022C155.12 799.022 155.504 799.046 156.272 799.094C157.088 799.142 158.024 799.19 159.08 799.238C160.184 799.286 161.216 799.334 162.176 799.382C163.184 799.43 163.88 799.454 164.264 799.454C164.744 799.454 165.056 799.382 165.2 799.238C165.392 799.046 165.488 798.758 165.488 798.374V783.902L177.584 784.838ZM142.16 784.622C142.16 784.91 141.752 785.294 140.936 785.774C140.168 786.254 139.16 786.686 137.912 787.07C136.712 787.406 135.464 787.574 134.168 787.574H132.8V758.99V755.102L142.808 758.99H176.864V761.006H142.16V784.622ZM173.552 758.99L177.872 754.31L186.728 761.006C186.536 761.294 186.2 761.582 185.72 761.87C185.24 762.158 184.616 762.398 183.848 762.59V782.678C183.848 782.87 183.416 783.182 182.552 783.614C181.688 784.046 180.632 784.454 179.384 784.838C178.184 785.174 177.032 785.342 175.928 785.342H174.272V758.99H173.552ZM183.704 745.598C183.704 745.598 184.184 745.982 185.144 746.75C186.104 747.518 187.256 748.454 188.6 749.558C189.944 750.614 191.144 751.622 192.2 752.582C192.008 753.35 191.336 753.734 190.184 753.734H125.528L124.952 751.718H178.952L183.704 745.598ZM183.704 783.398C183.704 783.398 183.992 783.638 184.568 784.118C185.144 784.55 185.888 785.15 186.8 785.918C187.712 786.638 188.648 787.406 189.608 788.222C190.616 789.038 191.504 789.806 192.272 790.526C192.08 791.294 191.408 791.678 190.256 791.678H124.52L123.944 789.662H178.952L183.704 783.398Z" fill="white"/>
<path d="M316 775.694C316 803.308 293.614 825.694 266 825.694C238.386 825.694 216 803.308 216 775.694C216 748.08 238.386 725.694 266 725.694C293.614 725.694 316 748.08 316 775.694Z" fill="#BD1E2D"/>
<path d="M287.888 785.198C287.888 785.534 287.888 785.942 287.888 786.422C287.888 786.902 287.888 787.286 287.888 787.574V796.934C287.888 797.318 287.96 797.606 288.104 797.798C288.248 797.942 288.56 798.014 289.04 798.014H291.272C291.656 798.014 291.992 798.014 292.28 798.014C292.616 797.966 292.904 797.942 293.144 797.942C293.72 797.942 294.176 797.678 294.512 797.15C294.896 796.622 295.352 795.71 295.88 794.414C296.408 793.07 297.032 791.438 297.752 789.518H298.472L298.688 797.438C299.792 797.966 300.464 798.542 300.704 799.166C300.992 799.742 301.136 800.486 301.136 801.398C301.136 802.55 300.776 803.534 300.056 804.35C299.336 805.166 298.16 805.79 296.528 806.222C294.944 806.654 292.76 806.87 289.976 806.87H285.8C283.592 806.87 281.936 806.63 280.832 806.15C279.776 805.718 279.08 804.926 278.744 803.774C278.456 802.67 278.312 801.158 278.312 799.238V785.198H287.888ZM275.36 785.126C274.976 789.494 273.848 793.286 271.976 796.502C270.152 799.67 267.464 802.31 263.912 804.422C260.408 806.582 255.944 808.262 250.52 809.462L250.304 808.598C254.048 806.774 256.952 804.734 259.016 802.478C261.08 800.174 262.544 797.582 263.408 794.702C264.32 791.822 264.824 788.63 264.92 785.126H275.36ZM254.336 776.702C255.728 776.606 257.648 776.438 260.096 776.198C262.592 775.91 265.376 775.574 268.448 775.19C271.52 774.806 274.688 774.398 277.952 773.966L278.024 774.902C276.056 775.91 273.56 777.11 270.536 778.502C267.56 779.894 263.984 781.478 259.808 783.254C259.424 784.214 258.8 784.766 257.936 784.91L254.336 776.702ZM271.76 762.374C271.712 762.758 271.544 763.094 271.256 763.382C270.968 763.67 270.464 763.862 269.744 763.958V777.206L261.68 779.222V761.582L271.76 762.374ZM272.048 763.958C272.048 763.958 272.336 764.246 272.912 764.822C273.536 765.35 274.232 766.022 275 766.838C275.816 767.606 276.536 768.35 277.16 769.07C277.016 769.838 276.416 770.222 275.36 770.222H255.704L255.2 768.206H269.168L272.048 763.958ZM293.504 772.166C293.504 772.166 293.912 772.502 294.728 773.174C295.544 773.846 296.48 774.662 297.536 775.622C298.64 776.534 299.624 777.422 300.488 778.286C300.296 779.054 299.648 779.438 298.544 779.438H274.28L273.704 777.422H289.688L293.504 772.166ZM293.648 763.382C293.648 763.382 293.984 763.694 294.656 764.318C295.376 764.894 296.216 765.614 297.176 766.478C298.136 767.294 299 768.086 299.768 768.854C299.576 769.622 298.952 770.006 297.896 770.006H277.592L277.016 767.99H290.264L293.648 763.382ZM292.136 762.518C292.088 762.95 291.92 763.31 291.632 763.598C291.344 763.886 290.816 764.078 290.048 764.174V778.502H281.84V761.654L292.136 762.518ZM291.776 752.798C291.776 752.798 292.256 753.182 293.216 753.95C294.224 754.718 295.376 755.654 296.672 756.758C298.016 757.814 299.216 758.822 300.272 759.782C300.128 760.55 299.456 760.934 298.256 760.934H259.16L258.584 758.918H287.024L291.776 752.798ZM292.712 778.718C292.712 778.718 293.168 779.078 294.08 779.798C294.992 780.518 296.072 781.382 297.32 782.39C298.568 783.35 299.696 784.286 300.704 785.198C300.56 785.966 299.912 786.35 298.76 786.35H255.704L255.128 784.334H288.32L292.712 778.718ZM289.184 744.302C289.184 744.302 289.616 744.662 290.48 745.382C291.392 746.054 292.472 746.894 293.72 747.902C294.968 748.862 296.072 749.798 297.032 750.71C296.84 751.478 296.168 751.862 295.016 751.862H260.744L260.168 749.846H284.936L289.184 744.302ZM283.712 742.286C283.664 742.766 283.472 743.198 283.136 743.582C282.8 743.918 282.128 744.182 281.12 744.374V759.854H271.4V741.35L283.712 742.286ZM232.304 753.59C235.184 756.038 237.272 758.486 238.568 760.934C239.864 763.382 240.56 765.614 240.656 767.63C240.752 769.646 240.416 771.302 239.648 772.598C238.928 773.846 237.968 774.542 236.768 774.686C235.616 774.83 234.44 774.23 233.24 772.886C233.432 770.822 233.456 768.686 233.312 766.478C233.168 764.222 232.928 762.014 232.592 759.854C232.256 757.694 231.848 755.702 231.368 753.878L232.304 753.59ZM262.4 754.814C262.304 755.15 262.04 755.462 261.608 755.75C261.176 756.038 260.552 756.134 259.736 756.038C259.016 757.238 258.08 758.678 256.928 760.358C255.776 762.038 254.504 763.766 253.112 765.542C251.768 767.318 250.4 768.974 249.008 770.51L248.288 770.222C248.816 768.206 249.32 765.95 249.8 763.454C250.328 760.958 250.808 758.534 251.24 756.182C251.672 753.83 251.984 751.934 252.176 750.494L262.4 754.814ZM246.704 781.742C249.872 783.134 252.32 784.67 254.048 786.35C255.824 787.982 257.024 789.614 257.648 791.246C258.32 792.83 258.56 794.294 258.368 795.638C258.176 796.934 257.672 797.99 256.856 798.806C256.088 799.574 255.128 799.958 253.976 799.958C252.824 799.91 251.648 799.334 250.448 798.23C250.4 796.406 250.136 794.558 249.656 792.686C249.176 790.766 248.6 788.894 247.928 787.07C247.304 785.246 246.632 783.59 245.912 782.102L246.704 781.742ZM252.32 743.078C252.224 743.654 251.96 744.11 251.528 744.446C251.096 744.782 250.472 744.998 249.656 745.094C249.608 751.67 249.56 757.742 249.512 763.31C249.512 768.878 249.296 773.966 248.864 778.574C248.432 783.182 247.616 787.382 246.416 791.174C245.264 794.966 243.512 798.374 241.16 801.398C238.808 804.422 235.688 807.134 231.8 809.534L231.08 808.526C234.008 805.022 236.168 801.134 237.56 796.862C239 792.542 239.936 787.694 240.368 782.318C240.8 776.942 240.992 770.942 240.944 764.318C240.896 757.646 240.872 750.206 240.872 741.998L252.32 743.078Z" fill="white"/>
<path d="M424 775.694C424 803.308 401.614 825.694 374 825.694C346.386 825.694 324 803.308 324 775.694C324 748.08 346.386 725.694 374 725.694C401.614 725.694 424 748.08 424 775.694Z" fill="#BD1E2D"/>
<path d="M367.52 746.246C370.352 747.158 372.368 748.238 373.568 749.486C374.816 750.686 375.464 751.886 375.512 753.086C375.608 754.238 375.296 755.222 374.576 756.038C373.904 756.806 373.016 757.214 371.912 757.262C370.856 757.31 369.8 756.806 368.744 755.75C368.84 754.166 368.672 752.534 368.24 750.854C367.856 749.174 367.352 747.758 366.728 746.606L367.52 746.246ZM358.304 741.566L368.816 742.718C368.768 743.198 368.552 743.63 368.168 744.014C367.784 744.398 367.112 744.662 366.152 744.806C366.008 750.086 365.864 755.222 365.72 760.214C365.576 765.206 365.528 769.91 365.576 774.326C365.624 778.742 365.864 782.75 366.296 786.35C366.776 789.95 367.544 792.998 368.6 795.494C368.888 796.118 369.104 796.406 369.248 796.358C369.44 796.31 369.68 795.974 369.968 795.35C370.4 794.39 370.904 793.142 371.48 791.606C372.056 790.07 372.584 788.582 373.064 787.142L373.856 787.214L372.488 799.382C373.256 801.494 373.712 803.198 373.856 804.494C374.048 805.79 373.832 806.678 373.208 807.158C372.056 808.022 370.832 808.286 369.536 807.95C368.24 807.614 367.064 806.966 366.008 806.006C364.952 805.046 364.16 804.062 363.632 803.054C361.952 799.598 360.728 795.686 359.96 791.318C359.192 786.902 358.688 782.102 358.448 776.918C358.256 771.686 358.184 766.118 358.232 760.214C358.28 754.31 358.304 748.094 358.304 741.566ZM339.584 763.166H365.648L369.392 758.126C369.392 758.126 369.776 758.462 370.544 759.134C371.312 759.758 372.2 760.526 373.208 761.438C374.264 762.35 375.2 763.214 376.016 764.03C375.872 764.798 375.248 765.182 374.144 765.182H340.16L339.584 763.166ZM339.296 779.654C340.352 779.318 341.84 778.814 343.76 778.142C345.68 777.47 347.84 776.678 350.24 775.766C352.64 774.854 355.088 773.918 357.584 772.958L357.8 773.678C356.504 775.07 354.8 776.87 352.688 779.078C350.576 781.286 348.032 783.758 345.056 786.494C344.912 787.55 344.384 788.27 343.472 788.654L339.296 779.654ZM367.736 766.91L377.672 769.574C377.528 770.006 377.264 770.342 376.88 770.582C376.544 770.822 375.896 770.966 374.936 771.014C374.216 773.798 373.304 776.726 372.2 779.798C371.096 782.822 369.728 785.846 368.096 788.87C366.512 791.846 364.616 794.702 362.408 797.438C360.248 800.126 357.728 802.526 354.848 804.638L354.128 803.918C356.24 801.422 358.064 798.662 359.6 795.638C361.184 792.566 362.504 789.374 363.56 786.062C364.664 782.75 365.552 779.462 366.224 776.198C366.896 772.934 367.4 769.838 367.736 766.91ZM352.472 741.854L360.752 748.118C360.512 748.454 360.2 748.67 359.816 748.766C359.432 748.814 358.856 748.742 358.088 748.55C355.448 749.174 352.544 749.678 349.376 750.062C346.256 750.446 343.328 750.686 340.592 750.782L339.872 749.702C342.08 748.79 344.264 747.638 346.424 746.246C348.632 744.806 350.648 743.342 352.472 741.854ZM377.96 750.35V746.966L386.96 750.35H386.024V786.422C386.024 786.614 385.424 786.95 384.224 787.43C383.072 787.862 381.464 788.078 379.4 788.078H377.96V750.35ZM381.56 750.35H400.28V752.366H381.56V750.35ZM381.56 758.774H400.28V760.79H381.56V758.774ZM383.72 782.318H403.808V784.334H383.72V782.318ZM381.56 767.27H400.28V769.286H381.56V767.27ZM395.888 750.35H395.24L398.912 746.39L406.616 752.222C406.424 752.462 406.088 752.726 405.608 753.014C405.176 753.254 404.624 753.422 403.952 753.518V769.214C403.952 769.406 403.568 769.694 402.8 770.078C402.08 770.462 401.192 770.822 400.136 771.158C399.128 771.446 398.168 771.59 397.256 771.59H395.888V750.35ZM383.504 774.974H397.112L401.288 769.574C401.288 769.574 401.696 769.91 402.512 770.582C403.376 771.254 404.384 772.094 405.536 773.102C406.736 774.062 407.792 774.974 408.704 775.838C408.56 776.606 407.912 776.99 406.76 776.99H383.504V774.974ZM383.432 789.374C385.256 791.006 386.528 792.59 387.248 794.126C387.968 795.662 388.256 797.054 388.112 798.302C388.016 799.502 387.656 800.462 387.032 801.182C386.408 801.854 385.664 802.19 384.8 802.19C383.984 802.142 383.216 801.638 382.496 800.678C382.832 798.854 382.952 796.934 382.856 794.918C382.808 792.854 382.664 791.078 382.424 789.59L383.432 789.374ZM387.392 787.934C389.744 788.846 391.448 789.878 392.504 791.03C393.608 792.182 394.232 793.31 394.376 794.414C394.568 795.47 394.424 796.382 393.944 797.15C393.464 797.87 392.816 798.302 392 798.446C391.184 798.542 390.344 798.206 389.48 797.438C389.576 795.902 389.312 794.294 388.688 792.614C388.064 790.886 387.344 789.47 386.528 788.366L387.392 787.934ZM391.352 785.99C393.848 786.278 395.768 786.806 397.112 787.574C398.456 788.342 399.32 789.182 399.704 790.094C400.136 791.006 400.232 791.846 399.992 792.614C399.752 793.382 399.272 793.91 398.552 794.198C397.832 794.438 396.992 794.294 396.032 793.766C395.744 792.518 395.048 791.198 393.944 789.806C392.888 788.414 391.784 787.334 390.632 786.566L391.352 785.99ZM399.344 782.318H398.624L402.656 778.43L409.928 784.334C409.4 784.958 408.44 785.366 407.048 785.558C406.856 790.118 406.568 793.838 406.184 796.718C405.8 799.598 405.272 801.854 404.6 803.486C403.928 805.166 403.04 806.414 401.936 807.23C400.928 807.998 399.776 808.55 398.48 808.886C397.184 809.222 395.672 809.39 393.944 809.39C393.944 808.286 393.872 807.278 393.728 806.366C393.584 805.502 393.272 804.806 392.792 804.278C392.36 803.75 391.736 803.27 390.92 802.838C390.104 802.454 389.144 802.142 388.04 801.902V800.894C388.712 800.942 389.456 800.99 390.272 801.038C391.136 801.086 391.952 801.134 392.72 801.182C393.488 801.23 394.088 801.254 394.52 801.254C395.432 801.254 396.104 801.062 396.536 800.678C397.256 800.054 397.832 798.278 398.264 795.35C398.744 792.422 399.104 788.078 399.344 782.318ZM385.592 741.134L398.552 743.438C398.264 744.638 397.304 745.286 395.672 745.382C394.664 746.198 393.44 747.158 392 748.262C390.608 749.366 389.408 750.302 388.4 751.07H385.16C385.256 749.822 385.328 748.238 385.376 746.318C385.472 744.35 385.544 742.622 385.592 741.134ZM378.536 789.302L379.688 789.374C380.792 792.638 381.272 795.518 381.128 798.014C381.032 800.51 380.504 802.406 379.544 803.702C379.112 804.278 378.488 804.662 377.672 804.854C376.904 805.046 376.112 805.022 375.296 804.782C374.528 804.542 373.928 804.062 373.496 803.342C373.016 802.382 372.968 801.422 373.352 800.462C373.736 799.454 374.384 798.614 375.296 797.942C375.776 797.414 376.28 796.67 376.808 795.71C377.336 794.75 377.768 793.718 378.104 792.614C378.488 791.462 378.632 790.358 378.536 789.302ZM346.64 747.11H354.2V799.382C354.2 801.11 353.984 802.646 353.552 803.99C353.168 805.382 352.352 806.51 351.104 807.374C349.856 808.238 347.912 808.79 345.272 809.03C345.224 807.782 345.152 806.702 345.056 805.79C344.96 804.878 344.72 804.134 344.336 803.558C344 802.982 343.496 802.478 342.824 802.046C342.2 801.614 341.24 801.278 339.944 801.038V800.102C339.944 800.102 340.328 800.126 341.096 800.174C341.864 800.222 342.68 800.27 343.544 800.318C344.456 800.366 345.08 800.39 345.416 800.39C345.944 800.39 346.28 800.294 346.424 800.102C346.568 799.862 346.64 799.526 346.64 799.094V747.11Z" fill="white"/>
<path d="M532 775.694C532 803.308 509.614 825.694 482 825.694C454.386 825.694 432 803.308 432 775.694C432 748.08 454.386 725.694 482 725.694C509.614 725.694 532 748.08 532 775.694Z" fill="#BD1E2D"/>
<path d="M448.376 763.166H499.352L505.328 755.606C505.328 755.606 505.688 755.894 506.408 756.47C507.128 756.998 508.04 757.694 509.144 758.558C510.296 759.422 511.472 760.334 512.672 761.294C513.92 762.254 515.048 763.166 516.056 764.03C515.864 764.798 515.144 765.182 513.896 765.182H448.952L448.376 763.166ZM474.512 741.494L488.84 742.79C488.744 743.366 488.48 743.822 488.048 744.158C487.664 744.494 487.04 744.734 486.176 744.878C486.08 749.438 485.936 753.878 485.744 758.198C485.6 762.518 485.192 766.694 484.52 770.726C483.848 774.758 482.768 778.622 481.28 782.318C479.792 785.966 477.68 789.446 474.944 792.758C472.208 796.022 468.656 799.07 464.288 801.902C459.968 804.686 454.64 807.254 448.304 809.606L447.728 808.67C453.392 805.022 457.952 801.23 461.408 797.294C464.912 793.31 467.576 789.182 469.4 784.91C471.224 780.638 472.472 776.198 473.144 771.59C473.864 766.934 474.272 762.11 474.368 757.118C474.464 752.078 474.512 746.87 474.512 741.494ZM485.528 763.67C486.056 767.126 487.016 770.51 488.408 773.822C489.848 777.134 491.792 780.302 494.24 783.326C496.688 786.302 499.736 789.062 503.384 791.606C507.08 794.102 511.448 796.286 516.488 798.158L516.416 799.022C513.776 799.55 511.664 800.702 510.08 802.478C508.544 804.206 507.56 806.582 507.128 809.606C503 806.918 499.544 803.75 496.76 800.102C494.024 796.454 491.816 792.542 490.136 788.366C488.456 784.19 487.184 779.99 486.32 775.766C485.504 771.542 484.904 767.558 484.52 763.814L485.528 763.67Z" fill="white"/>
<path d="M640 775.694C640 803.308 617.614 825.694 590 825.694C562.386 825.694 540 803.308 540 775.694C540 748.08 562.386 725.694 590 725.694C617.614 725.694 640 748.08 640 775.694Z" fill="#BD1E2D"/>
<path d="M559.472 748.406H604.4L610.232 740.99C610.232 740.99 610.568 741.278 611.24 741.854C611.96 742.382 612.872 743.078 613.976 743.942C615.08 744.758 616.232 745.646 617.432 746.606C618.632 747.566 619.736 748.454 620.744 749.27C620.552 750.038 619.856 750.422 618.656 750.422H560.048L559.472 748.406ZM561.992 774.47H602.528L608.144 767.414C608.144 767.414 608.48 767.678 609.152 768.206C609.824 768.686 610.688 769.334 611.744 770.15C612.8 770.966 613.904 771.83 615.056 772.742C616.208 773.654 617.264 774.518 618.224 775.334C618.032 776.102 617.336 776.486 616.136 776.486H562.568L561.992 774.47ZM584.024 748.766H595.544V804.062H584.024V748.766ZM556.664 803.774H607.28L613.256 796.214C613.256 796.214 613.616 796.502 614.336 797.078C615.056 797.606 615.968 798.302 617.072 799.166C618.224 800.03 619.4 800.942 620.6 801.902C621.848 802.862 622.976 803.774 623.984 804.638C623.792 805.406 623.072 805.79 621.824 805.79H557.24L556.664 803.774Z" fill="white"/>
<path d="M635.507 620.895C637.486 625.183 637.404 628.069 635.26 629.553C633.281 631.037 627.674 630.79 618.439 628.811C604.752 626.172 590.983 625.018 577.131 625.348C563.278 625.678 548.107 627.409 531.616 630.542C515.786 633.676 501.604 637.304 489.071 641.426C476.538 645.549 466.561 649.589 459.14 653.547C456.337 655.196 453.781 656.35 451.472 657.01C449.164 657.505 446.855 657.422 444.546 656.762C442.402 656.103 440.094 654.701 437.62 652.557C435.311 650.414 432.673 647.445 429.705 643.652C427.891 641.014 427.396 638.953 428.22 637.468C429.045 635.984 430.694 635.572 433.168 636.232C434.322 636.562 435.476 636.809 436.631 636.974C437.95 637.139 439.764 637.139 442.073 636.974C444.546 636.809 447.679 636.314 451.472 635.49C455.265 634.5 460.295 633.016 466.561 631.037C465.242 627.409 464.087 623.864 463.098 620.401C462.109 616.938 461.367 612.898 460.872 608.28C460.377 603.663 460.047 598.138 459.882 591.707C459.882 585.276 460.047 577.195 460.377 567.466C460.542 562.849 460.377 559.55 459.882 557.572C459.553 555.428 458.811 553.531 457.656 551.882C456.007 550.068 454.853 548.254 454.193 546.44C453.698 544.626 453.451 542.318 453.451 539.514C453.451 538.03 453.781 536.793 454.441 535.804C455.265 534.815 456.172 534.155 457.161 533.825C458.151 533.495 459.14 533.495 460.13 533.825C461.284 534.155 462.191 534.897 462.851 536.051C464.665 538.525 466.479 540.421 468.293 541.741C470.931 544.049 472.91 546.44 474.229 548.914C475.713 551.388 476.785 554.768 477.445 559.056C480.248 556.912 482.557 555.263 484.371 554.109C486.35 552.789 487.999 551.882 489.318 551.388C490.637 550.893 491.792 550.646 492.781 550.646C493.935 550.481 495.172 550.481 496.492 550.646C500.119 551.14 502.181 552.624 502.675 555.098C503.335 557.407 502.511 559.798 500.202 562.271C496.904 564.91 493.111 567.301 488.823 569.445C484.701 571.589 480.496 573.567 476.208 575.381C476.043 578.185 475.878 581.071 475.713 584.039C475.713 586.842 475.713 589.893 475.713 593.191C478.022 592.202 480.001 591.212 481.65 590.223C483.464 589.234 485.36 587.832 487.339 586.018C488.329 585.028 490.39 584.534 493.523 584.534C496.656 584.534 499.377 585.276 501.686 586.76C504.984 590.058 504.737 593.191 500.944 596.16C496.821 599.128 492.699 601.601 488.576 603.58C484.453 605.559 480.413 606.961 476.455 607.785C476.785 611.413 476.703 615.041 476.208 618.669C475.878 622.132 476.043 625.513 476.703 628.811C481.65 627.492 487.009 626.255 492.781 625.101C498.553 623.781 504.242 622.545 509.849 621.39C507.87 617.927 506.468 613.969 505.644 609.517C504.984 605.064 504.902 599.375 505.396 592.449C506.056 583.05 506.468 574.969 506.633 568.208C506.963 561.282 507.046 555.18 506.881 549.903C506.881 544.626 506.633 539.927 506.139 535.804C505.644 531.516 504.902 527.311 503.912 523.189C500.944 525.003 498.223 526.487 495.749 527.641C493.441 528.631 491.05 529.455 488.576 530.115C486.102 530.609 483.299 530.857 480.166 530.857C477.198 530.857 473.652 530.692 469.529 530.362C470.684 529.702 471.921 529.125 473.24 528.631C474.559 527.971 475.713 527.229 476.703 526.404C474.394 524.261 472.663 522.612 471.508 521.457C470.354 520.303 469.694 519.396 469.529 518.736C469.364 518.077 469.612 517.582 470.271 517.252C470.931 516.922 471.921 516.428 473.24 515.768C475.548 514.614 477.61 513.542 479.424 512.552C481.403 511.398 483.299 510.161 485.113 508.842C488.741 506.533 492.369 505.132 495.997 504.637C499.79 504.142 502.923 504.472 505.396 505.626C508.695 507.44 510.838 509.749 511.828 512.552C512.982 515.356 512.405 517.994 510.096 520.468C511.086 521.292 512.158 522.117 513.312 522.941C514.631 523.766 515.703 524.673 516.528 525.662C517.187 521.705 517.847 518.571 518.506 516.263C519.166 513.789 519.908 511.893 520.733 510.573C521.557 509.089 522.547 508.017 523.701 507.358C524.855 506.533 526.175 505.874 527.659 505.379C529.308 504.554 530.957 503.647 532.606 502.658C534.42 501.668 536.399 500.267 538.543 498.453C540.686 496.969 543.49 496.309 546.953 496.474C550.416 496.474 554.703 497.876 559.815 500.679C564.598 503.482 567.813 505.791 569.462 507.605C571.111 509.419 572.101 511.728 572.431 514.531C578.697 512.552 582.408 510.161 583.562 507.358C584.881 504.719 587.272 503.318 590.735 503.153C594.363 502.823 599.063 504.06 604.835 506.863C616.708 513.624 620.418 520.468 615.966 527.394C614.976 528.878 613.987 531.269 612.998 534.567C612.008 537.7 610.854 542.318 609.535 548.419C608.38 554.521 607.143 562.436 605.824 572.166C604.505 581.73 603.021 593.686 601.372 608.033C611.596 606.219 619.182 606.384 624.129 608.528C629.076 610.671 632.869 614.794 635.507 620.895ZM606.814 689.166C605.329 692.3 603.598 693.784 601.619 693.619C599.64 693.619 597.826 691.887 596.177 688.424C594.693 685.786 593.209 683.477 591.725 681.498C590.241 679.519 588.344 677.541 586.035 675.562C583.727 673.748 580.594 671.769 576.636 669.625C572.843 667.481 567.896 664.925 561.794 661.957C566.741 663.441 570.617 664.431 573.42 664.925C576.388 665.255 578.615 665.255 580.099 664.925C581.583 664.596 582.408 663.936 582.572 662.946C582.737 661.792 582.572 660.555 582.078 659.236C580.429 656.103 578.78 653.794 577.131 652.31C575.646 650.826 573.832 649.259 571.689 647.61C568.885 645.302 567.566 643.9 567.731 643.405C567.896 642.745 569.38 642.416 572.183 642.416C579.604 642.416 586.118 643.817 591.725 646.621C597.496 649.259 601.949 652.805 605.082 657.257C608.38 661.545 610.194 666.492 610.524 672.099C611.019 677.706 609.782 683.395 606.814 689.166ZM517.764 647.61C511.333 652.557 504.737 658.659 497.976 665.915C491.379 673.006 484.206 682.405 476.455 694.114C474.312 696.752 472.745 698.071 471.756 698.071C470.931 698.236 469.694 697.329 468.045 695.35C463.428 689.579 460.954 684.549 460.624 680.262C460.46 675.974 462.191 671.851 465.819 667.894C468.293 665.42 470.271 661.957 471.756 657.505C472.58 655.196 473.157 654.124 473.487 654.289C473.817 654.289 473.899 655.443 473.734 657.752C473.075 665.008 473.157 669.213 473.982 670.367C474.806 671.357 476.703 670.779 479.671 668.636C483.464 665.667 486.927 663.194 490.06 661.215C493.358 659.071 496.492 657.257 499.46 655.773C502.428 654.124 505.396 652.722 508.365 651.568C511.333 650.249 514.466 648.929 517.764 647.61ZM554.126 530.115C554.291 526.817 554.456 524.096 554.621 521.952C554.786 519.808 554.786 518.077 554.621 516.757C554.456 515.273 554.209 514.119 553.879 513.294C553.549 512.47 553.137 511.645 552.642 510.821C551.158 509.172 550.003 508.512 549.179 508.842C548.354 509.172 547.53 509.749 546.705 510.573C541.593 516.345 535.904 517.582 529.638 514.284C524.196 511.645 521.64 513.707 521.969 520.468C522.134 527.559 521.64 533.908 520.485 539.514C524.938 536.711 528.566 534.567 531.369 533.083C534.173 531.599 536.481 530.609 538.295 530.115C540.274 529.62 541.923 529.62 543.242 530.115C544.727 530.445 546.211 531.022 547.695 531.846C550.333 533.66 551.653 535.309 551.653 536.793C551.817 538.278 550.251 539.844 546.953 541.493C544.479 543.142 541.099 545.533 536.811 548.667C532.523 551.635 527.989 555.098 523.206 559.056C526.999 553.779 528.978 550.481 529.143 549.161C529.308 547.842 528.401 547.512 526.422 548.172C524.938 548.502 523.866 548.667 523.206 548.667C522.547 548.502 521.805 547.925 520.98 546.935C521.145 551.553 521.145 555.675 520.98 559.303C520.98 562.931 520.815 566.641 520.485 570.434C525.927 567.301 530.38 564.827 533.843 563.013C537.306 561.2 540.109 560.045 542.253 559.55C544.562 558.891 546.458 558.726 547.942 559.056C549.591 559.221 551.323 559.715 553.137 560.54C552.972 555.758 552.972 550.81 553.137 545.698C553.302 540.586 553.631 535.392 554.126 530.115ZM593.951 523.189C594.281 521.045 594.116 519.726 593.456 519.231C592.961 518.736 592.219 518.736 591.23 519.231C582.985 522.199 576.059 522.529 570.452 520.22C569.627 521.705 568.885 523.848 568.226 526.652C567.731 529.455 567.236 533.248 566.741 538.03C566.412 542.648 566.164 548.419 565.999 555.345C565.834 562.106 565.752 570.269 565.752 579.834C567.236 579.339 569.05 578.762 571.194 578.102C573.503 577.278 575.317 576.288 576.636 575.134C578.45 573.98 580.594 573.073 583.067 572.413C585.706 571.753 587.849 571.589 589.498 571.918C589.828 568.785 590.158 565.734 590.488 562.766C590.983 559.798 591.23 556.83 591.23 553.861C586.778 555.84 583.479 557.489 581.336 558.808C579.357 560.128 577.13 562.271 574.657 565.24C575.976 562.436 576.636 560.375 576.636 559.056C576.801 557.736 576.388 556.747 575.399 556.087C573.585 555.428 571.936 554.356 570.452 552.872C568.968 551.388 568.061 550.068 567.731 548.914C566.906 545.616 567.813 544.297 570.452 544.956C571.276 545.286 572.596 545.286 574.41 544.956C576.224 544.626 578.12 543.967 580.099 542.977C583.067 541.823 585.293 541.163 586.778 540.999C588.262 540.669 590.158 540.669 592.467 540.999C592.632 537.371 592.797 534.237 592.962 531.599C593.291 528.796 593.621 525.992 593.951 523.189ZM542.748 575.876C544.067 571.259 542.995 569.857 539.532 571.671C537.388 572.825 535.244 574.227 533.101 575.876C530.957 577.36 529.06 579.009 527.411 580.823C529.555 582.637 531.122 585.935 532.111 590.718C533.595 589.893 534.832 589.151 535.822 588.491C536.811 587.667 537.636 586.76 538.295 585.77C539.12 584.616 539.862 583.297 540.521 581.813C541.181 580.329 541.923 578.35 542.748 575.876ZM571.689 589.234C570.699 588.409 569.627 587.667 568.473 587.007C567.483 586.183 566.577 585.441 565.752 584.781C565.752 587.09 565.752 589.069 565.752 590.718C565.752 592.367 565.67 593.933 565.505 595.417C566.659 594.428 567.731 593.521 568.72 592.697C569.71 591.707 570.699 590.553 571.689 589.234ZM588.509 584.781C584.386 587.584 580.511 589.976 576.883 591.954C573.255 593.768 569.462 595.582 565.505 597.396C565.505 599.705 565.422 602.179 565.257 604.817C565.092 607.291 564.845 609.682 564.515 611.991C568.308 611.496 571.936 611.001 575.399 610.506C579.027 610.012 582.737 609.517 586.53 609.022C586.86 605.229 587.19 601.354 587.52 597.396C587.849 593.439 588.179 589.234 588.509 584.781ZM553.384 583.792C551.405 585.441 550.003 587.09 549.179 588.739C548.354 590.388 548.025 591.954 548.19 593.439C548.19 594.428 548.107 595.253 547.942 595.912C547.777 596.407 547.2 596.984 546.211 597.644C545.386 598.138 544.067 598.716 542.253 599.375C540.604 600.035 538.213 600.859 535.079 601.849C533.101 602.508 531.452 602.838 530.132 602.838C528.978 602.838 527.824 602.261 526.669 601.107C525.68 599.787 524.69 597.644 523.701 594.675C522.712 591.542 521.557 587.172 520.238 581.565C519.743 586.842 519.331 592.944 519.001 599.87C518.836 606.631 518.589 613.475 518.259 620.401C524.031 618.752 529.72 617.515 535.327 616.69C540.934 615.866 546.376 614.876 551.653 613.722C552.477 608.61 552.972 603.745 553.137 599.128C553.467 594.346 553.549 589.234 553.384 583.792Z" fill="black"/>
<path d="M368.112 549.656C363.495 550.481 358.383 551.717 352.776 553.366C347.334 554.851 342.552 556.747 338.429 559.056C337.935 561.364 337.357 564.333 336.698 567.961C336.203 571.589 335.461 574.804 334.472 577.608C339.254 576.618 343.129 575.959 346.097 575.629C349.231 575.134 351.704 575.052 353.518 575.381C355.497 575.546 357.064 576.288 358.218 577.608C359.537 578.762 360.856 580.493 362.176 582.802C364.649 586.925 364.814 590.223 362.67 592.697C360.692 595.17 356.816 597.067 351.045 598.386C348.241 599.045 344.448 600.117 339.666 601.601C335.049 602.921 329.937 604.487 324.33 606.301C318.888 608.115 313.034 610.177 306.767 612.485C300.666 614.794 294.729 617.103 288.958 619.411C288.133 619.741 287.391 619.988 286.731 620.153C286.237 620.153 285.412 619.988 284.258 619.659C283.103 619.164 281.537 618.422 279.558 617.432C277.579 616.278 274.858 614.794 271.395 612.98C268.097 611.166 265.871 609.187 264.716 607.043C263.562 604.9 263.892 602.673 265.706 600.365C266.53 599.045 267.85 598.138 269.664 597.644C271.477 597.149 272.879 597.314 273.869 598.138C275.023 599.128 276.672 599.623 278.816 599.623C281.125 599.623 282.856 599.21 284.01 598.386C289.287 595.417 294.399 592.944 299.347 590.965C304.294 588.986 308.416 587.337 311.715 586.018C312.044 584.204 312.374 581.813 312.704 578.844C313.034 575.876 313.364 573.732 313.693 572.413C310.065 575.216 305.86 577.03 301.078 577.855C296.296 578.515 290.854 577.03 284.752 573.403C281.784 571.589 278.486 568.868 274.858 565.24C271.23 561.612 267.932 557.654 264.964 553.366C264.139 552.542 264.057 551.965 264.716 551.635C265.541 551.14 267.355 551.305 270.158 552.13C273.786 552.954 276.919 553.284 279.558 553.119C282.196 552.954 284.917 552.13 287.721 550.646C289.7 549.656 292.008 548.667 294.647 547.677C297.285 546.523 300.006 545.369 302.81 544.214C305.613 543.06 308.416 541.988 311.22 540.999C314.023 539.844 316.579 538.855 318.888 538.03C318.888 534.567 318.888 530.857 318.888 526.899C318.888 522.941 318.723 518.159 318.393 512.552C318.228 509.584 318.063 507.193 317.899 505.379C317.734 503.565 317.321 501.998 316.662 500.679C316.167 499.36 315.342 498.205 314.188 497.216C313.034 496.062 311.467 494.66 309.488 493.011C307.345 491.527 306.438 490.125 306.767 488.806C307.097 487.322 308.829 486.415 311.962 486.085C324.165 484.93 332.905 486.332 338.182 490.29C343.624 494.248 345.355 500.514 343.376 509.089C342.882 511.398 342.552 514.201 342.387 517.499C342.222 520.633 342.14 524.508 342.14 529.125C344.119 528.96 346.18 528.96 348.324 529.125C350.632 529.29 352.859 529.62 355.002 530.115C357.146 530.609 359.125 531.352 360.939 532.341C362.918 533.165 364.402 534.32 365.391 535.804C369.514 541.246 371.493 544.874 371.328 546.688C371.163 548.337 370.091 549.326 368.112 549.656ZM419.563 633.263C417.749 638.211 415.853 641.591 413.874 643.405C411.895 645.219 409.998 645.961 408.184 645.631C401.588 644.147 396.064 642.993 391.611 642.168C387.159 641.179 383.696 640.272 381.222 639.447C379.738 638.953 378.914 638.54 378.749 638.211C378.584 637.881 378.831 637.633 379.491 637.468C381.14 636.974 382.954 636.314 384.933 635.49C386.912 634.5 388.643 633.511 390.127 632.521C391.776 631.367 393.096 630.213 394.085 629.058C395.074 627.904 395.487 626.914 395.322 626.09C394.497 622.297 393.096 619.824 391.117 618.669C389.138 617.35 388.066 617.597 387.901 619.411C387.901 620.401 387.159 621.555 385.675 622.874C384.191 624.029 380.893 625.925 375.78 628.564C372.647 630.377 370.009 631.944 367.865 633.263C365.721 634.583 363.825 635.737 362.176 636.726C360.527 637.716 359.043 638.705 357.723 639.695C356.404 640.684 355.167 641.674 354.013 642.663C360.279 647.445 365.556 651.485 369.844 654.784C374.296 658.082 378.089 660.885 381.222 663.194C384.356 665.338 386.994 667.152 389.138 668.636C391.282 669.955 393.26 671.109 395.074 672.099C400.681 675.067 403.732 678.365 404.227 681.993C404.721 685.786 401.836 688.507 395.569 690.156C387.159 692.135 378.584 693.372 369.844 693.866C361.104 694.361 352.694 694.196 344.613 693.372C336.533 692.712 329.112 691.475 322.351 689.661C315.755 688.012 310.23 685.868 305.778 683.23C301.985 681.086 298.605 678.942 295.636 676.799C292.833 674.655 290.442 672.099 288.463 669.13C286.484 666.162 284.835 662.534 283.516 658.247C282.196 653.959 281.124 648.6 280.3 642.168C279.97 639.53 279.063 638.293 277.579 638.458C276.26 638.623 274.693 639.86 272.879 642.168C270.406 645.466 268.427 648.27 266.943 650.578C265.623 652.887 264.469 655.526 263.48 658.494C262.655 661.297 261.995 664.76 261.501 668.883C261.006 673.006 260.429 678.53 259.769 685.456C259.274 690.403 257.873 693.207 255.564 693.866C253.42 694.691 251.524 693.372 249.875 689.909C247.236 683.642 245.175 678.612 243.691 674.82C242.372 671.192 241.465 668.306 240.97 666.162C240.475 663.853 240.393 662.122 240.723 660.968C241.217 659.648 241.959 658.329 242.949 657.01C244.598 654.701 246.082 652.475 247.401 650.331C248.885 648.022 250.534 646.208 252.348 644.889C253.338 643.9 254.327 642.745 255.317 641.426C256.471 639.942 258.615 637.139 261.748 633.016C262.408 632.191 263.15 632.027 263.974 632.521C264.799 632.851 264.881 633.676 264.222 634.995C262.573 638.953 261.995 641.509 262.49 642.663C263.15 643.817 264.057 643.735 265.211 642.416C269.004 637.963 271.89 634.912 273.869 633.263C275.847 631.614 277.826 630.79 279.805 630.79C282.609 630.79 285.33 632.191 287.968 634.995C290.771 637.798 293.245 641.674 295.389 646.621C296.873 651.073 298.275 654.701 299.594 657.505C300.913 660.308 302.397 662.699 304.046 664.678C305.86 666.657 308.004 668.306 310.478 669.625C312.951 670.779 316.167 671.934 320.125 673.088C322.433 673.913 325.154 674.49 328.288 674.82C331.421 675.314 334.719 675.644 338.182 675.809C341.645 675.974 345.19 676.056 348.818 676.056C352.446 676.056 355.827 675.892 358.96 675.562C363.742 675.067 366.381 674.572 366.876 674.078C367.535 673.583 367.205 672.429 365.886 670.615C364.237 667.976 362.67 665.667 361.186 663.688C359.702 661.71 358.218 659.813 356.734 657.999C355.25 656.185 353.601 654.454 351.787 652.805C350.138 650.991 348.324 649.012 346.345 646.868C343.376 649.012 341.315 650.661 340.161 651.815C339.006 652.97 337.852 654.454 336.698 656.268C335.543 658.082 334.142 658.989 332.493 658.989C330.844 658.824 327.71 657.505 323.093 655.031C321.279 654.041 319.548 652.722 317.899 651.073C316.414 649.259 315.178 647.528 314.188 645.879C313.199 644.065 312.539 642.416 312.209 640.931C311.879 639.447 312.127 638.458 312.951 637.963C313.776 637.633 314.353 636.561 314.683 634.748C315.178 632.769 315.425 630.707 315.425 628.564C315.59 626.42 315.507 624.523 315.178 622.874C315.013 621.06 314.6 620.153 313.941 620.153C313.446 620.153 313.034 619.906 312.704 619.411C312.539 618.752 312.951 618.01 313.941 617.185C315.425 616.196 317.404 615.783 319.877 615.948C322.351 615.948 324.907 616.608 327.545 617.927C330.184 619.081 332.575 620.895 334.719 623.369C337.028 625.843 338.759 628.811 339.913 632.274C348.653 629.635 355.744 627.409 361.186 625.595C366.628 623.781 370.916 622.215 374.049 620.895C377.347 619.576 379.821 618.422 381.47 617.432C383.284 616.443 384.85 615.289 386.17 613.969C386.994 613.31 388.231 612.815 389.88 612.485C391.529 611.991 393.343 611.826 395.322 611.991C397.466 611.991 399.692 612.32 402.001 612.98C404.474 613.475 406.783 614.217 408.927 615.206C414.204 617.845 417.502 620.895 418.821 624.358C420.305 627.657 420.552 630.625 419.563 633.263Z" fill="black"/>
<path d="M223.407 575.134C222.748 579.257 219.944 580.988 214.997 580.329C214.173 580.164 211.781 580.658 207.824 581.813C203.866 582.967 199.578 584.534 194.961 586.513C194.961 587.997 194.961 590.965 194.961 595.417C195.126 599.87 195.291 604.817 195.456 610.259C195.621 615.536 195.786 620.813 195.95 626.09C196.28 631.202 196.528 635.16 196.693 637.963C197.022 643.9 197.27 649.177 197.435 653.794C197.6 658.247 197.6 662.864 197.435 667.646C197.27 672.264 196.857 677.458 196.198 683.23C195.538 689.002 194.631 696.093 193.477 704.503C192.487 712.418 191.086 716.211 189.272 715.881C187.623 715.716 186.221 711.594 185.067 703.513C183.747 694.279 182.593 684.632 181.604 674.572C180.614 664.513 179.707 654.619 178.883 644.889C178.058 635.16 177.399 625.925 176.904 617.185C176.574 608.28 176.409 600.447 176.409 593.686C172.286 595.83 167.587 598.798 162.31 602.591C157.198 606.384 152.498 610.094 148.21 613.722C148.045 617.185 147.798 620.813 147.468 624.606C147.138 628.234 146.726 631.779 146.231 635.242C145.902 638.705 145.489 641.921 144.995 644.889C144.5 647.858 144.005 650.414 143.51 652.557C142.356 656.02 141.119 657.834 139.8 657.999C138.646 658.164 137.656 657.422 136.832 655.773C136.007 653.299 135.1 651.073 134.111 649.094C133.121 647.115 132.214 645.384 131.39 643.9C129.741 641.096 128.586 638.87 127.927 637.221C127.432 635.572 127.35 633.758 127.679 631.779C127.844 630.295 127.927 627.986 127.927 624.853C128.092 621.72 128.174 618.504 128.174 615.206C127.02 619.988 125.536 624.853 123.722 629.8C121.908 634.748 120.011 639.53 118.032 644.147C118.857 648.765 117.868 651.898 115.064 653.547C112.261 655.031 107.396 654.206 100.47 651.073C100.8 654.701 100.882 659.236 100.717 664.678C100.552 670.12 100.14 675.479 99.4805 680.756C98.3262 689.661 95.5228 689.579 91.0703 680.509C90.0809 678.365 89.0914 676.469 88.102 674.82C87.2775 673.171 86.288 671.604 85.1337 670.12C84.1443 668.636 82.9899 667.234 81.6707 665.915C80.5163 664.431 79.0322 662.864 77.2182 661.215C73.9201 664.678 71.0343 667.234 68.5607 668.883C66.0871 670.367 63.7784 670.697 61.6346 669.872C59.6557 669.048 57.7593 666.987 55.9454 663.689C54.2963 660.225 52.5648 655.361 50.7508 649.094C49.2667 650.084 47.5352 651.238 45.5563 652.557C43.5774 653.877 41.681 655.196 39.867 656.515C38.0531 657.834 36.404 659.071 34.9199 660.225C33.4357 661.38 32.4463 662.204 31.9516 662.699C31.127 663.689 30.3025 664.513 29.478 665.173C28.8183 665.667 27.9938 665.997 27.0044 666.162C26.0149 666.327 24.7781 666.245 23.294 665.915C21.8098 665.585 19.831 665.008 17.3574 664.183C14.0593 663.194 11.5032 662.369 9.68925 661.71C7.87529 661.05 6.47359 660.39 5.48415 659.731C4.65962 659.071 4.16491 658.412 4 657.752C4 657.092 4.08245 656.185 4.24736 655.031C4.74208 652.063 5.31925 650.249 5.97887 649.589C6.8034 648.765 7.95774 648.27 9.4419 648.105C11.7506 647.61 14.3891 646.621 17.3574 645.137C20.3257 643.488 24.4483 640.849 29.7253 637.221C32.034 635.737 35.9917 633.428 41.5985 630.295C47.2053 627.162 53.142 623.864 59.4084 620.401C65.8397 616.938 71.7763 613.722 77.2182 610.754C82.825 607.621 86.7003 605.394 88.8441 604.075C78.455 606.878 70.2097 608.527 64.1082 609.022C58.1716 609.352 53.142 609.352 49.0193 609.022C46.051 608.527 43.9072 607.95 42.588 607.291C41.2687 606.631 40.6091 605.312 40.6091 603.333C40.6091 601.024 40.8565 599.54 41.3512 598.881C42.0108 598.221 43.2476 597.726 45.0616 597.396C46.051 597.067 48.2772 596.242 51.7403 594.923C55.2033 593.604 59.161 592.037 63.6135 590.223C62.789 588.904 62.1293 586.348 61.6346 582.555C61.4697 581.071 61.0574 579.339 60.3978 577.36C59.9031 575.381 59.4908 573.32 59.161 571.176C58.8312 568.868 58.7488 566.559 58.9137 564.25C59.0786 561.942 59.8207 559.88 61.1399 558.066C56.0278 559.55 51.4104 559.55 47.2878 558.066C43.3301 556.417 39.2074 552.377 34.9199 545.946C32.1165 541.823 31.0446 539.267 31.7042 538.278C32.3638 537.123 34.3427 536.876 37.6408 537.536C38.7951 537.865 40.0319 538.113 41.3512 538.278C42.6704 538.278 44.4844 537.948 46.7931 537.288C49.2667 536.629 52.4823 535.557 56.4401 534.072C60.3978 532.423 65.7573 530.197 72.5184 527.394C69.715 525.745 68.2309 524.508 68.0659 523.683C68.0659 522.859 69.3027 522.034 71.7763 521.21C72.7658 521.045 73.9201 520.633 75.2393 519.973C76.5586 519.313 77.9603 518.654 79.4445 517.994C80.9286 517.17 82.3303 516.345 83.6495 515.521C84.9688 514.696 86.0407 513.954 86.8652 513.294C85.2162 509.502 83.5671 506.286 81.918 503.647C80.4339 500.844 79.2795 498.948 78.455 497.958C77.4656 497.134 76.5586 495.979 75.7341 494.495C75.0744 492.846 74.7446 491.362 74.7446 490.043C74.7446 488.888 75.3218 488.229 76.4761 488.064C77.6305 487.734 79.0322 487.981 80.6812 488.806C82.1654 489.795 84.1443 490.537 86.6179 491.032C89.2564 491.527 91.8948 491.939 94.5333 492.269C101.294 493.093 106.407 495.649 109.87 499.937C113.498 504.06 116.054 509.254 117.538 515.521C125.288 514.696 129.411 517.335 129.906 523.436C130.071 525.58 129.576 527.229 128.422 528.383C127.267 529.373 124.876 530.939 121.248 533.083C117.455 535.227 113.498 537.783 109.375 540.751C105.417 543.719 102.696 546.276 101.212 548.419C104.84 547.76 107.643 547.512 109.622 547.677C111.601 547.677 113.992 548.254 116.796 549.409C118.775 547.925 120.424 546.853 121.743 546.193C123.062 545.533 124.958 545.039 127.432 544.709C137.986 535.804 146.231 528.218 152.168 521.952C158.105 515.685 161.485 511.48 162.31 509.337C156.703 511.645 153.405 512.552 152.415 512.058C151.426 511.563 151.921 510.326 153.899 508.347C160.661 502.081 166.845 500.349 172.451 503.153C176.244 505.132 179.295 507.605 181.604 510.573C184.077 513.542 185.314 516.098 185.314 518.242C185.314 521.045 181.769 525.745 174.678 532.341C167.587 538.937 157.362 545.616 144.005 552.377C144.005 553.696 144.252 555.18 144.747 556.829C145.407 558.479 146.396 559.468 147.715 559.798C150.519 560.787 152.168 562.849 152.663 565.982C153.157 569.115 152.415 572.001 150.436 574.639C149.612 575.959 149.035 577.855 148.705 580.329C148.375 582.637 148.375 585.028 148.705 587.502C153.817 584.369 158.764 581.4 163.546 578.597C168.494 575.629 172.616 573.155 175.914 571.176C175.914 568.868 175.172 566.806 173.688 564.992C172.864 564.003 172.616 562.849 172.946 561.529C173.441 560.21 174.183 558.891 175.172 557.572C176.327 556.252 177.728 555.18 179.377 554.356C181.026 553.366 182.758 552.872 184.572 552.872C186.881 553.037 189.024 554.109 191.003 556.087C193.147 557.901 194.631 560.293 195.456 563.261C198.919 561.447 202.134 560.457 205.103 560.293C208.236 560.128 210.792 560.622 212.771 561.777C215.409 563.261 217.471 564.663 218.955 565.982C220.604 567.136 221.758 568.208 222.418 569.197C223.077 570.187 223.407 571.176 223.407 572.166C223.572 573.155 223.572 574.145 223.407 575.134ZM132.132 575.629C131.967 571.836 131.637 569.28 131.142 567.961C130.813 566.641 129.658 565.24 127.679 563.756C126.36 567.878 123.392 570.599 118.775 571.918C116.631 572.743 115.229 573.485 114.569 574.145C113.91 574.639 113.415 575.464 113.085 576.618C117.373 576.948 120.094 577.608 121.248 578.597C122.402 579.587 122.98 581.813 122.98 585.276C122.98 587.42 122.567 588.986 121.743 589.976C120.918 590.965 118.857 592.037 115.559 593.191C112.261 594.51 109.952 595.747 108.633 596.902C107.478 597.891 106.736 599.045 106.407 600.365C109.87 599.705 112.673 599.21 114.817 598.881C117.125 598.386 119.104 598.221 120.753 598.386C122.402 598.386 123.887 598.633 125.206 599.128C126.525 599.623 127.927 600.282 129.411 601.107C130.4 599.128 131.142 596.242 131.637 592.449C132.297 588.656 132.462 583.05 132.132 575.629ZM122.98 614.217C119.846 614.547 116.383 615.289 112.591 616.443C108.798 617.432 105.335 618.587 102.201 619.906C101.872 621.72 101.789 624.441 101.954 628.069C102.284 631.532 102.696 633.923 103.191 635.242C104.675 635.737 106.489 635.984 108.633 635.984C112.096 632.686 115.147 628.976 117.785 624.853C120.424 620.731 122.155 617.185 122.98 614.217ZM80.1865 583.05C80.1865 580.411 80.5988 578.597 81.4233 577.608C82.2479 576.618 84.0618 575.711 86.8652 574.887C88.3494 574.557 89.916 573.815 91.565 572.66C93.2141 571.341 94.6982 569.94 96.0175 568.455C97.5016 566.806 98.656 565.322 99.4805 564.003C100.47 562.519 100.882 561.364 100.717 560.54C98.5735 559.55 96.5122 559.138 94.5333 559.303C92.5545 559.303 90.4931 560.293 88.3494 562.271C86.2056 564.085 83.8145 566.971 81.176 570.929C78.7024 574.722 75.899 579.916 72.7658 586.513C74.085 585.853 75.3218 585.276 76.4761 584.781C77.6305 584.286 78.8673 583.709 80.1865 583.05ZM85.8758 626.832C82.5777 628.316 79.1146 629.965 75.4867 631.779C71.8588 633.593 68.7256 635.49 66.0871 637.468C66.4169 640.107 67.3239 642.416 68.808 644.395C71.9412 643.405 75.1569 642.168 78.455 640.684C81.7531 639.035 83.8969 637.468 84.8863 635.984C85.8758 634.83 86.3705 633.346 86.3705 631.532C86.3705 629.718 86.2056 628.151 85.8758 626.832ZM89.3388 539.762C88.6792 540.092 87.0301 540.999 84.3916 542.483C81.918 543.967 79.1971 545.616 76.2288 547.43C73.2605 549.244 70.5395 551.058 68.0659 552.872C65.7573 554.521 64.3556 555.593 63.8608 556.087C64.6854 557.572 66.252 557.736 68.5607 556.582C69.2203 556.087 70.7044 555.016 73.0131 553.366C75.4867 551.717 77.9603 549.986 80.4339 548.172C82.9075 546.358 85.0513 544.626 86.8652 542.977C88.6792 541.328 89.5037 540.256 89.3388 539.762ZM85.8758 651.568C84.3916 652.063 83.3197 652.64 82.6601 653.299C82.1654 653.959 81.5882 655.526 80.9286 657.999C82.2479 659.319 83.8145 659.896 85.6284 659.731C85.9582 658.741 86.1231 657.505 86.1231 656.02C86.288 654.371 86.2056 652.887 85.8758 651.568Z" fill="black"/>
<path d="M515.627 259.694C515.627 370.151 435.039 459.694 335.627 459.694C236.216 459.694 155.627 370.151 155.627 259.694C155.627 149.237 236.216 59.6938 335.627 59.6938C435.039 59.6938 515.627 149.237 515.627 259.694Z" fill="#CE0024"/>
<path d="M515.627 259.694C515.627 149.237 435.039 59.6938 335.627 59.6938C236.216 59.6938 155.627 149.237 155.627 259.694C155.627 370.151 236.216 459.694 335.627 459.694C435.039 459.694 515.627 370.151 515.627 259.694ZM527.627 259.694C527.564 280.687 524.72 301.663 519.05 321.878C497.837 402.648 422.984 472.296 335.627 471.194C293.887 471.458 250.912 458.206 218.392 430.887C167.616 388.368 147.226 321.472 147.627 259.694C147.546 219.014 154.554 176.509 176.374 140.255C208.511 85.6004 269.512 45.0971 335.627 45.2378C377.323 44.7023 418.84 60.0734 450.863 86.2114C485.804 114.43 509.964 154.364 520.795 197.024C526.037 217.533 528.281 238.702 527.627 259.694Z" fill="#4F071A"/>
<path d="M408.127 149.694C421.327 111.294 413.627 77.7157 409.627 61.1939C401.127 31.6939 379.127 5.69386 315.687 20.796C317.003 22.0872 318.16 23.5529 319.127 25.1939C330.627 44.6939 327.963 68.3148 321.627 80.1938C320.816 81.7147 319.45 83.7085 317.808 86.1045L317.804 86.1109L317.803 86.1118C311.347 95.5313 300.635 111.16 302.627 128.694C305.127 150.694 329.127 145.194 337.127 142.694C340.782 141.552 344.766 139.639 348.651 137.774L348.651 137.774C357.085 133.724 365.046 129.901 368.127 134.694C372.627 141.694 370.127 155.694 363.627 172.694C359.62 183.176 352.19 194.989 344.504 204.85C343.184 208.905 341.726 213.341 340.127 218.194C312.627 301.694 289.127 325.694 274.127 326.194C259.127 326.694 246.627 311.194 238.627 298.694C230.627 286.194 224.646 277.162 202.627 275.694C172.627 273.694 166.627 300.194 162.127 290.194C193.627 260.194 181.627 212.694 171.627 189.194C161.627 165.694 141.961 160.361 136.627 162.694C155.627 189.694 151.627 232.694 120.127 273.694C81.6274 331.194 99.7881 345.194 97.1274 364.194C97.1274 389.694 110.011 410.439 132.127 419.194C156.662 428.906 182.127 412.194 189.127 404.694C200.127 413.694 221.627 421.473 231.127 421.194C248.127 420.694 264.507 397.194 271.127 397.194C282.507 397.194 250.627 454.694 311.627 458.194C344.728 460.093 331.127 459.694 375.627 456.194C386.482 463.765 398.627 468.34 415.127 463.694C435.627 474.694 457.627 472.402 467.127 463.047C469.129 463.688 499.274 467.795 514.127 459.694C530.627 450.694 540.461 436.027 538.127 418.194C514.127 429.194 503.627 420.694 496.627 410.194C489.627 399.694 492.627 385.194 513.627 371.194C532.102 358.877 548.627 338.694 545.627 329.694C526.127 351.694 482.127 342.194 479.627 335.694C477.127 329.194 494.216 326.759 504.127 324.694C516.127 322.194 517.627 315.694 517.627 315.694C517.627 315.694 504.627 319.694 492.127 321.694C469.951 325.242 413.819 318.194 395.627 295.694C361.127 253.023 391.799 197.194 408.127 149.694Z" fill="white"/>
<path d="M384.127 403.694C384.127 401.485 385.918 399.694 388.127 399.694C390.337 399.694 392.127 401.485 392.127 403.694C392.127 418.035 395.789 431.92 401.558 443.327C407.356 454.792 415.109 463.425 423.019 467.669C424.965 468.714 425.696 471.139 424.652 473.085C423.607 475.032 421.182 475.763 419.236 474.718C409.442 469.463 400.694 459.346 394.418 446.937C388.113 434.469 384.127 419.352 384.127 403.694ZM430.541 393.195C432.75 393.147 434.579 394.899 434.626 397.108C434.978 413.451 439.103 430.479 446.949 443.471C454.754 456.396 466.007 465.025 480.809 465.698C483.016 465.798 484.724 467.669 484.624 469.875C484.523 472.082 482.653 473.79 480.446 473.69C462.248 472.863 448.863 462.118 440.1 447.607C431.377 433.162 427.003 414.69 426.628 397.28C426.581 395.071 428.333 393.242 430.541 393.195ZM391.566 332.619C392.988 330.929 395.511 330.71 397.202 332.132C398.892 333.554 399.111 336.077 397.689 337.768C346.82 398.261 361.893 447.204 384.415 462.913C386.227 464.177 386.672 466.67 385.409 468.482C384.145 470.294 381.651 470.738 379.839 469.475C351.958 450.028 338.989 395.144 391.566 332.619ZM209.457 294.698C211.426 294.613 213.163 295.977 213.549 297.91C216.336 311.843 218.003 332.909 213.149 352.489C214.57 367.605 210.892 381.694 205.688 392.881C200.447 404.148 193.454 412.896 188 416.914C186.222 418.225 183.717 417.845 182.407 416.067C181.096 414.288 181.476 411.784 183.254 410.474C187.3 407.493 193.558 399.99 198.435 389.506C200.447 385.181 202.187 380.42 203.433 375.354C195.781 386.958 184.023 396.204 166.496 400.099C140.246 405.932 121.054 400.091 108.155 389.554C95.421 379.152 89.177 364.459 88.144 353.055C87.9447 350.855 89.5669 348.91 91.7671 348.71C93.967 348.511 95.9116 350.133 96.1108 352.333C96.9649 361.762 102.271 374.419 113.215 383.359C123.994 392.164 140.609 397.656 164.759 392.289C188.157 387.09 199.677 371.201 204.799 352.796C207.467 343.21 208.356 333.02 208.217 323.503C206.3 327.389 203.954 331.197 201.28 334.836C192.807 346.365 180.695 356.721 167.176 363.235C153.662 369.746 138.433 372.554 123.945 368.423C109.348 364.261 96.1717 353.248 86.5307 333.445C85.5638 331.458 86.3902 329.064 88.3764 328.097C90.3627 327.13 92.7571 327.957 93.7241 329.943C102.583 348.14 114.156 357.313 126.138 360.73C138.228 364.177 151.405 361.954 163.704 356.028C175.997 350.104 187.103 340.616 194.833 330.098C196.25 328.17 197.541 326.224 198.701 324.275C191.278 329.099 181.989 331.076 172.45 330.742C152.789 330.051 130.757 319.49 118.764 300.859C117.568 299.001 118.105 296.526 119.962 295.33C121.82 294.135 124.295 294.671 125.491 296.529C135.898 312.697 155.365 322.137 172.73 322.746C181.367 323.05 189.155 321.155 194.937 317.169C200.613 313.257 204.652 307.138 205.653 298.246L205.677 298.064C205.974 296.195 207.549 294.779 209.457 294.698ZM292.445 349.771C293.783 348.013 296.293 347.673 298.05 349.011C299.808 350.349 300.148 352.859 298.81 354.617C290.798 365.141 275.98 383.345 273.107 411.599C272.883 413.796 270.921 415.396 268.723 415.173C266.525 414.95 264.925 412.987 265.148 410.789C268.275 380.043 284.496 360.212 292.445 349.771ZM259.578 369.606C261.007 367.921 263.531 367.715 265.215 369.144C266.9 370.573 267.106 373.097 265.677 374.782C258.743 382.955 252.083 390.366 244.849 394.638C241.146 396.824 237.185 398.261 232.866 398.544C228.539 398.828 224.101 397.939 219.472 395.835C217.461 394.921 216.572 392.55 217.486 390.538C218.4 388.527 220.772 387.638 222.783 388.552C226.403 390.198 229.528 390.747 232.342 390.562C235.163 390.377 237.921 389.438 240.781 387.749C246.672 384.271 252.512 377.933 259.578 369.606Z" fill="#4F071A"/>
<path d="M316.135 7.86556C335.366 3.51746 356.736 0.600761 378.757 7.90853C401.11 14.7767 416.862 36.6671 422.347 56.513L422.6 57.4564L422.748 58.0169C424.368 65.3282 426.064 73.114 426.801 80.9788C429.204 105.313 424.184 130.097 415.208 152.127C413.056 157.45 410.911 162.711 408.917 167.998C408.213 169.864 407.511 171.715 406.806 173.569C391.615 213.022 374.2 259.307 401.242 291.154C421.282 311.345 460.849 316.905 490.944 314.298C492.317 314.075 493.698 313.826 495.083 313.557C501.179 312.366 506.587 307.949 512.489 306.262C513.19 306.061 513.95 305.845 514.545 305.677C523.19 302.882 529.755 309.169 527.839 318.05C527.821 318.126 527.802 318.208 527.779 318.295C527.756 318.387 527.758 318.375 527.747 318.416C527.73 318.479 527.713 318.544 527.693 318.611C527.655 318.744 527.639 318.796 527.608 318.894C527.543 319.101 527.511 319.198 527.457 319.354C527.362 319.624 527.261 319.885 527.178 320.087C526.987 320.551 526.812 320.926 526.625 321.297C526.251 322.036 525.864 322.683 525.452 323.296C524.647 324.494 523.763 325.531 522.854 326.439C521.031 328.252 519.108 329.577 517.195 330.634C516.041 331.264 514.897 331.796 513.766 332.254C515.091 332.124 516.402 331.962 517.69 331.767C525.843 330.551 533.241 327.802 537.766 322.726C543.769 315.888 552.675 317.753 555.594 326.371C556.147 328.044 556.389 329.657 556.459 331.114C554.969 348.308 547.466 353.405 541.442 361.385C534.997 368.64 527.925 375.025 519.938 380.659C514.274 384.659 509.366 389.392 507.03 393.779C504.75 398.378 505.091 400.363 506.975 403.295C507.913 404.657 508.836 405.839 509.727 406.801C512.769 409.929 514.554 410.629 518.421 410.685C522.259 410.649 527.555 409.032 532.796 406.562C541.366 402.572 549.532 407.168 550.814 416.534C554.871 439.652 538.195 462.338 520.35 471.102C516.38 473.255 512.579 474.474 508.981 475.364C494.869 478.18 484.942 478.536 470.869 476.621C469.173 477.729 467.447 478.661 465.729 479.456C447.13 487.274 429.093 484.201 413.7 477.002C399.758 479.702 383.447 475.797 372.189 468.519C370.152 468.676 368.135 468.838 366.062 469.013C349.459 470.799 327.848 472.773 310.883 471.17C310.211 471.134 309.547 471.09 308.89 471.039C293.405 470.336 271.358 460.738 265.686 440.98C262.835 432.128 263.072 423.719 263.793 416.202C264.009 414.023 264.29 411.882 264.569 409.844C262.53 411.335 260.469 412.933 258.437 414.622C251.24 420.226 244.872 428.363 231.414 430.949C219.727 432.153 211.653 430.405 203.036 427.368C198.744 425.698 194.547 423.912 190.342 421.622C184.747 425.75 179.053 428.566 172.642 431.181C159.17 436.502 142.23 438.19 127.076 431.955C99.4689 421.764 82.9982 391.004 84.2403 364.194C84.2353 363.832 84.3201 362.765 84.3653 362.407C85.3713 355.26 79.486 329.408 86.4766 312.9C92.0623 295.49 100.949 280.918 110.156 267.017C110.244 266.887 110.516 266.508 110.611 266.383C110.909 265.996 111.204 265.608 111.496 265.221C133.549 236.844 144.929 196.055 126.405 169.888C121.581 163.032 123.744 154.914 131.256 151.406L131.617 151.242C139.701 148.431 142.487 149.974 146.193 150.536C149.654 151.366 152.63 152.59 155.417 154.045C160.957 156.963 165.622 160.858 169.486 165.231C174.803 171.251 178.063 178.516 180.022 185.622C182 193.082 183.403 200.493 185.273 207.747C188.78 221.492 190.717 235.908 189.258 250.635C188.744 256.51 187.865 262.748 186.315 268.913C191.687 267.938 197.135 267.859 202.17 268.155C202.487 268.17 202.805 268.189 203.126 268.21C211.192 268.773 220.133 270.129 228.291 275.268C236.514 280.438 241.361 288.193 245.365 294.381C245.37 294.389 245.376 294.397 245.381 294.405C252.911 306.236 262.686 318.998 273.269 319.204C273.477 319.208 273.685 319.208 273.895 319.202C287.814 317.181 301.001 294.323 309.948 276.44C319.31 257.361 326.84 237.243 333.731 216.836C333.806 216.612 333.883 216.387 333.961 216.162C335.492 211.74 337.451 207.463 339.583 203.248C339.644 202.874 340.238 202 340.423 201.669C349.152 193.467 358.725 184.824 363.376 173.335C363.362 173.371 363.349 173.407 363.335 173.443C363.29 173.556 363.245 173.669 363.2 173.782C359.106 183.987 351.926 195.328 344.504 204.85C343.184 208.905 341.726 213.341 340.128 218.194C312.628 301.693 289.128 325.693 274.128 326.194C259.128 326.694 246.628 311.194 238.628 298.694C230.628 286.194 224.646 277.162 202.627 275.694C172.627 273.694 166.627 300.194 162.127 290.194C193.627 260.194 181.627 212.694 171.627 189.194C161.627 165.694 141.96 160.36 136.627 162.694C155.627 189.694 151.627 232.694 120.127 273.694C81.6272 331.194 99.7875 345.194 97.127 364.194C97.127 389.693 110.01 410.439 132.127 419.194C156.661 428.905 182.127 412.194 189.127 404.694C200.127 413.694 221.628 421.473 231.128 421.194C248.127 420.693 264.506 397.195 271.127 397.194C282.506 397.194 250.628 454.693 311.627 458.194C344.727 460.093 331.127 459.694 375.627 456.194C386.481 463.764 398.627 468.34 415.127 463.694C435.627 474.694 457.627 472.402 467.127 463.047C469.129 463.688 499.274 467.795 514.127 459.694C530.627 450.694 540.46 436.027 538.127 418.194C514.127 429.193 503.627 420.694 496.627 410.194C489.627 399.694 492.627 385.194 513.627 371.194C532.102 358.877 548.627 338.694 545.627 329.694C526.127 351.694 482.127 342.194 479.627 335.694C477.128 329.194 494.216 326.759 504.127 324.694C516.127 322.194 517.627 315.694 517.627 315.694C517.551 315.717 504.59 319.7 492.127 321.694C469.951 325.242 413.818 318.194 395.627 295.694C361.127 253.023 391.799 197.194 408.127 149.694C421.327 111.294 413.628 77.7155 409.628 61.1937C401.128 31.6938 379.127 5.69422 315.688 20.7962C317.003 22.0874 318.16 23.5528 319.128 25.1937C330.628 44.6935 327.963 68.3146 321.628 80.1937C321.108 81.1679 320.357 82.3335 319.455 83.6771C319.503 83.6039 319.554 83.5317 319.602 83.4583C320.283 82.3757 320.936 81.262 321.453 80.1009C328.592 61.7538 318.173 42.0753 308.875 31.2406C308.255 30.6309 307.644 30.1278 307.006 29.6429C298.816 22.3173 302.256 11.7734 312.816 8.73764C313.874 8.42905 314.928 8.15024 315.978 7.90267C316.03 7.89031 316.082 7.87788 316.135 7.86556ZM272.273 405.052C272.717 404.864 272.353 404.905 271.959 405.085C271.89 405.115 271.819 405.149 271.744 405.184C271.996 405.142 272.172 405.09 272.273 405.052ZM507.979 311.891C507.957 311.907 507.921 311.946 507.86 312.051C507.832 312.102 507.8 312.162 507.753 312.267C507.828 312.182 507.889 312.108 507.93 312.044C508 311.937 508.02 311.864 507.979 311.891ZM139.65 174.674C139.588 174.677 139.594 174.688 139.762 174.674C139.715 174.673 139.678 174.672 139.65 174.674ZM317.859 86.0277C317.842 86.053 317.825 86.0794 317.808 86.1048C317.806 86.1068 317.805 86.1087 317.804 86.1107C317.823 86.0832 317.841 86.0551 317.859 86.0277ZM319.067 84.2581C318.687 84.8202 318.282 85.4105 317.859 86.0277C318.264 85.439 318.666 84.8486 319.067 84.2581Z" fill="#4F071A"/>
<path d="M315.688 20.7962C345.839 13.6186 366.63 15.7253 381.059 23.0795C354.653 18.5851 331.267 21.2915 318.54 24.2529C317.703 22.9874 316.746 21.8354 315.688 20.7962Z" fill="#BCBDBF"/>
<path d="M309.501 127.913C309.425 126.876 309.399 125.847 309.422 124.826C311.062 127.793 313.639 131.461 317.086 134.355C319.621 136.482 322.564 138.152 325.967 138.864C322.744 139.163 319.656 139.035 317.053 138.312C311.954 136.836 310.014 133.723 309.501 127.913Z" fill="#BCBDBF"/>
<path fill-rule="evenodd" clip-rule="evenodd" d="M377.411 165.849C373.763 175.093 368.017 184.326 362.146 191.16C364.945 186.018 367.446 180.644 369.659 175C370.214 173.227 370.806 171.466 371.4 169.699C374.813 159.544 378.286 149.211 375.143 135.615C374.684 134.233 374.051 132.814 373.174 131.45C372.536 130.36 371.524 129.343 370.371 128.527C372.143 129.194 373.815 130.285 375.402 131.813C379.799 136.048 381.41 141.774 381.401 147.645C381.392 153.483 379.799 159.797 377.411 165.849Z" fill="#BCBDBF"/>
<path d="M95.2131 332.87C97.4317 337.043 99.8024 340.696 102.292 343.876C109.506 353.089 117.722 358.33 126.138 360.73C127.025 360.983 127.918 361.205 128.816 361.398C140.156 363.831 152.307 361.519 163.704 356.028C175.997 350.104 187.103 340.616 194.833 330.098C196.25 328.17 197.541 326.224 198.701 324.275L198.641 324.314C187.181 336.537 173.277 343.899 160.457 347.303C147.233 350.814 136.159 349.883 130.258 346.933C115.652 339.63 102.746 326.362 99.1126 313.704C96.5859 321.2 95.5103 327.448 95.2131 332.87Z" fill="#BCBDBF"/>
<path d="M113.215 383.359C104.758 376.45 99.6675 367.322 97.3966 359.18C97.3799 358.485 97.3436 357.791 97.2917 357.095C110.561 371.991 127.562 381.986 145.115 383.21C161.953 384.385 186.141 372.76 203.286 339.366C204.841 337.956 206.368 336.479 207.861 334.933C207.385 340.92 206.421 346.969 204.799 352.796C199.677 371.201 188.157 387.09 164.759 392.289C140.609 397.656 123.994 392.164 113.215 383.359Z" fill="#BCBDBF"/>
<path d="M198.435 389.506C195.392 396.048 191.811 401.429 188.566 405.275C180.85 413.016 156.046 428.661 132.127 419.194C114.746 412.314 103.068 398.028 98.8633 379.849C101.459 383.314 104.546 386.606 108.155 389.554C108.323 389.692 108.493 389.829 108.664 389.965C112.959 394.829 117.678 399.354 122.596 403.156C132.205 410.584 141.697 414.587 149.794 414.202C160.02 413.715 168.615 412.641 177.394 407.956C183.841 404.514 190.768 398.91 198.467 389.437L198.435 389.506Z" fill="#BCBDBF"/>
<path d="M233.081 421.037C237.045 420.168 240.9 418.605 244.543 416.697C250.025 413.438 255.144 408.95 259.536 405.101C262.393 402.596 264.942 400.362 267.082 398.913C270.94 381.809 278.656 368.753 285.264 359.389C283.871 360.836 282.47 362.296 281.063 363.763C272.222 372.983 263.142 382.452 254.131 390.28C248.156 395.47 242.547 399.631 237.441 402.354C232.262 405.116 228.313 406.016 225.404 405.732C219.043 405.111 215.282 401.198 212.855 395.279C210.88 390.461 210.195 385.074 210.085 381.355C208.852 385.451 207.348 389.314 205.688 392.881C203.757 397.033 201.587 400.843 199.345 404.2C198.134 406.013 196.901 407.694 195.673 409.226C199.498 411.519 203.818 413.632 208.171 415.424C216.957 419.04 225.876 421.348 231.128 421.194C231.78 421.174 232.431 421.121 233.081 421.037Z" fill="#BCBDBF"/>
<path d="M289.363 373.218C290.071 370.08 290.836 367.08 291.608 364.285C284.366 374.597 276.136 389.028 273.487 408.409C273.469 408.604 273.45 408.801 273.432 408.999C273.407 409.259 273.382 409.521 273.357 409.786V409.786C273.012 413.421 272.617 417.583 272.615 421.906C272.61 437.964 278.037 456.266 311.627 458.194C313.627 458.308 315.457 458.415 317.14 458.513C327.845 459.135 332.581 459.41 337.307 459.293C341.057 459.2 344.8 458.86 351.514 458.249C355.519 457.885 360.581 457.425 367.331 456.864C365.365 454.068 363.594 451.013 362.059 447.722C359.872 443.034 358.162 437.865 357.041 432.277C352.034 435.06 346.511 437.215 340.631 438.335C326.111 441.101 313.982 441.689 304.975 438.358C296.888 435.367 290.047 428.719 286.976 413.146C284.629 401.24 286.374 386.471 289.363 373.218Z" fill="#BCBDBF"/>
<path d="M496.627 410.194C499.241 414.114 502.342 417.756 506.452 420.207C505.237 420.07 504.056 419.863 502.911 419.586C495.164 417.713 489.816 412.799 487.113 406.634C484.52 400.719 484.514 394.069 486.287 388.315C488.06 382.557 491.855 376.948 497.762 373.689C508.39 367.825 522.437 355.346 535.124 341.481C538.063 338.269 540.869 335.048 543.493 331.889C544.232 331.195 544.945 330.463 545.627 329.694C548.627 338.694 532.102 358.877 513.627 371.194C492.628 385.193 489.627 399.694 496.627 410.194Z" fill="#BCBDBF"/>
<path d="M434.928 403.167C436.05 417.583 440.069 432.079 446.949 443.471C448.339 445.773 449.839 447.94 451.449 449.949C456.441 456.18 462.492 460.9 469.617 463.493C470.246 463.583 470.975 463.678 471.793 463.774C481.241 464.882 502.428 466.075 514.127 459.694C523.652 454.498 530.955 447.415 534.978 438.924C533.351 440.064 531.692 441.177 530 442.25C520.983 447.966 511.576 452.176 501.878 453.242C483.859 455.222 460.819 446.581 434.928 403.167Z" fill="#BCBDBF"/>
<path d="M401.558 443.327C396.073 432.481 392.493 419.395 392.154 405.806C392.282 406.11 392.411 406.419 392.542 406.731C396.578 416.357 402.17 429.696 413.419 442.06C423.128 452.731 437.279 462.855 458.797 468.29C448.987 472.21 434.92 472.24 420.938 466.449C413.761 461.885 406.847 453.784 401.558 443.327Z" fill="#BCBDBF"/>
<path d="M379.214 458.547C365.607 445.012 357.095 418.208 369.664 384.061C370.347 395.729 371.858 408.715 375.117 421.169C380.023 439.921 388.549 456.211 402.933 465.56C393.881 465.697 386.227 462.845 379.214 458.547Z" fill="#BCBDBF"/>
<path d="M383.999 77.94C384.391 77.9428 384.774 77.953 385.116 78.0259C385.458 78.0998 385.739 78.2387 385.94 78.4624C386.141 78.6862 386.25 78.9806 386.288 79.3286C386.324 79.6755 386.295 80.0575 386.256 80.4478C386.218 80.7346 386.174 81.012 386.124 81.2808C385.641 83.7151 384.4 85.7016 382.257 86.8804C380.122 88.097 377.165 88.0592 375.082 86.7993C374.841 86.6652 374.603 86.5202 374.366 86.3648C374.041 86.1438 373.73 85.921 373.487 85.6704C373.244 85.4184 373.088 85.1463 373.045 84.8482C373.003 84.5502 373.076 84.2458 373.239 83.9361C373.402 83.6275 373.64 83.3259 373.889 83.023C374.068 82.8081 374.244 82.6024 374.416 82.4058C376.053 80.6247 376.793 79.6078 377.951 78.9781C379.113 78.3462 380.835 77.9872 383.193 77.94C383.451 77.9378 383.719 77.9389 383.999 77.94Z" fill="#4F071A"/>
<path d="M379.128 107.194C379.128 89.2448 370.539 78.1941 355.628 78.1938C340.716 78.1938 326.628 99.7446 326.628 117.694C326.628 135.643 324.216 142.694 339.128 142.694C353.923 142.693 378.736 125.416 379.123 107.615L379.128 107.194ZM385.627 107.194C385.521 111.366 384.398 115.284 382.811 118.708C373.512 135.708 358.775 146.241 339.128 148.194C335.973 148.118 332.676 148.232 328.429 146.321C326.315 145.349 324.109 143.351 322.954 141.167C321.763 138.993 321.345 136.996 321.063 135.239C320.223 128.371 320.71 123.218 320.628 117.694C321.944 97.9656 330.574 75.8502 355.628 72.1938C363.831 71.9089 374.279 75.1459 379.551 83.0786C382.505 87.3001 384.131 92.0067 384.956 96.5464C385.608 100.154 385.773 103.715 385.627 107.194Z" fill="#4F071A"/>
<path d="M379.127 107.194C379.127 125.143 354.039 142.694 339.127 142.694C324.216 142.694 326.627 135.643 326.627 117.694C326.627 99.7446 340.716 78.1938 355.627 78.1938C370.539 78.1938 379.127 89.2446 379.127 107.194Z" fill="white"/>
<path d="M375.626 110.973C375.626 119.764 379.127 134.194 343.802 146.694C332.053 150.851 331.747 134.791 331.747 119.764C331.747 104.736 343.522 86.6938 355.985 86.6938C368.448 86.6938 375.626 95.9456 375.626 110.973Z" fill="#4F071A"/>
<path d="M362.627 97.6938C362.627 104.321 357.255 109.694 350.627 109.694C344 109.694 338.627 104.321 338.627 97.6938C338.627 91.0664 344 85.6938 350.627 85.6938C357.255 85.6938 362.627 91.0664 362.627 97.6938Z" fill="white"/>
<path d="M247.627 106.694C240.127 94.694 228.627 56.6938 265.627 25.1939C283.666 9.83645 309.927 9.59386 319.127 25.1939C330.627 44.6939 327.963 68.3148 321.627 80.1939C317.627 87.6938 300.127 106.694 302.627 128.694C305.127 150.694 329.127 145.194 337.127 142.694C348.716 139.073 363.627 127.694 368.127 134.694C372.627 141.694 370.127 155.694 363.627 172.694C357.127 189.694 341.627 210.194 330.627 220.194C310.441 238.545 279.127 255.194 265.127 244.694C254.628 236.819 258.127 219.694 269.127 212.694C259.387 226.694 264.627 239.194 275.627 241.694C292.383 245.502 313.54 224.92 321.127 214.694C333.284 198.309 346.627 154.194 337.127 150.694C330.833 148.375 333.977 165.136 309.627 181.694C284.627 198.694 270.127 202.194 255.127 204.194C240.127 206.194 199.127 202.694 199.127 187.694C199.127 174.656 207.127 176.694 240.127 160.694C273.127 144.694 255.127 118.694 247.627 106.694Z" fill="#FF8D00"/>
<path fill-rule="evenodd" clip-rule="evenodd" d="M275.521 217.514C275.578 217.431 275.636 217.347 275.694 217.262C275.88 216.994 276.05 216.725 276.203 216.455C276.936 215.359 277.757 214.271 278.707 213.177C281.457 210.012 285.412 206.674 291.684 203.152C299.859 199.001 307.294 193.919 314.353 188.643C320.492 184.067 326.244 178.551 330.828 172.057C331.123 171.642 331.412 171.221 331.698 170.796C330.896 174.314 329.881 177.861 328.745 181.366C325.33 191.668 320.852 202.368 315.134 210.248C314.173 211.52 313.082 212.829 311.949 214.108C302.24 225.066 287.063 236.278 277.371 234.023C272.462 232.933 270.687 228.184 272.988 222.219C273.749 220.638 274.538 219.105 275.467 217.593L275.521 217.514Z" fill="#860115"/>
<path fill-rule="evenodd" clip-rule="evenodd" d="M291.677 203.156C290.342 203.906 289.113 204.647 287.978 205.379C283.78 208.089 280.871 210.686 278.707 213.177C277.757 214.271 276.936 215.359 276.203 216.455C276.05 216.725 275.881 216.994 275.694 217.262C275.636 217.347 275.578 217.431 275.521 217.514L275.467 217.593C274.538 219.105 273.749 220.638 272.988 222.219C272.926 222.379 272.868 222.538 272.812 222.696C270.784 228.436 272.593 232.963 277.371 234.024C287.063 236.278 302.24 225.066 311.949 214.108C313.082 212.829 314.173 211.52 315.134 210.248C316.186 208.799 317.446 206.849 318.703 204.719C320.636 201.379 322.402 197.745 324.01 193.984C324.926 191.419 322.654 190.036 321.627 189.694C316.664 187.708 314.164 188.839 310.781 191.269L310.707 191.322C308.329 193.036 305.903 194.715 303.416 196.333C299.657 198.778 295.759 201.083 291.677 203.156Z" fill="#CE0024"/>
<path d="M290.265 13.9707C267.011 27.6823 255.449 39.2883 248.48 60.1938C246.765 65.3411 246.893 77.7284 248.48 83.6938C250.085 89.7252 252.463 95.0594 255.572 101.528C255.854 102.115 256.139 102.705 256.425 103.298C259.207 109.066 262.123 115.112 263.993 120.97C266.068 127.472 267.096 134.439 264.881 141.242C263.052 146.859 258.991 151.385 254.335 154.978C249.648 158.596 243.993 161.553 238.348 163.937C231.188 166.961 223.751 169.187 217.728 170.696C223.448 168.307 230.786 165.223 240.127 160.694C271.933 145.273 256.364 120.564 248.48 108.051C248.184 107.581 247.899 107.129 247.627 106.694C240.186 94.7878 228.807 57.286 264.769 25.9333L265.627 25.1941C273.037 18.8861 281.833 15.1282 290.265 13.9707Z" fill="#FFAC00" fill-opacity="0.9"/>
<path d="M203.643 177.458C200.31 179.896 199.127 182.68 199.127 187.694C199.128 202.694 240.127 206.194 255.127 204.194C263.966 203.016 272.631 201.316 283.373 196.641C282.016 196.823 280.648 196.999 279.26 197.177C275.584 197.649 271.764 198.139 267.627 198.818C252.127 202.194 232.403 201.087 223.127 197.694C216.465 195.257 211.627 194.694 205.627 186.194C203.227 182.793 202.856 179.669 203.643 177.458Z" fill="#FF6A00"/>
<path d="M359.107 136.973C360.628 136.9 362.576 136.941 364.293 138.406C365.978 139.942 366.168 141.934 366.202 143.391C366.183 146.412 365.484 148.954 365.057 151.574C364.993 151.948 364.933 152.32 364.877 152.694C364.85 152.879 364.767 153.056 364.629 153.187C364.492 153.318 364.313 153.391 364.127 153.391C363.942 153.391 363.763 153.318 363.625 153.187C363.488 153.056 363.404 152.879 363.377 152.694C363.322 152.301 363.275 151.909 363.236 151.516C362.95 148.784 363.082 145.979 362.755 143.638C362.284 141.081 361.808 140.937 359.359 140.965C358.069 141.051 356.647 141.105 355.067 141.007C354.686 140.979 354.283 140.946 353.857 140.907C353.683 140.889 353.507 140.846 353.359 140.755C353.211 140.664 353.102 140.534 353.052 140.379C353.003 140.225 353.015 140.054 353.082 139.894C353.15 139.733 353.267 139.596 353.398 139.48C353.734 139.197 354.067 138.938 354.396 138.703C355.777 137.753 357.293 137.1 359.107 136.973Z" fill="#FFAC00" fill-opacity="0.9"/>
<path d="M290.77 160.207C291.315 158.352 293.26 157.291 295.115 157.836C296.969 158.382 298.03 160.327 297.485 162.181C296.273 166.302 294.133 169.087 291.645 171.012C289.249 172.866 286.647 173.82 284.824 174.483C283.007 175.144 280.999 174.207 280.338 172.39C279.678 170.574 280.615 168.565 282.431 167.905C284.275 167.234 285.923 166.588 287.36 165.476C288.706 164.435 289.982 162.886 290.77 160.207Z" fill="#4F071A"/>
<path fill-rule="evenodd" clip-rule="evenodd" d="M256.876 14.9147C272.328 2.22997 293.973 -5.63477 316.543 4.92352C317.242 5.29035 317.898 5.75683 318.504 6.29754C321.657 9.0809 323.002 13.3863 324.189 17.1826C324.662 18.697 325.11 20.1306 325.637 21.3542C325.751 21.6224 325.879 21.8817 326.022 22.1315C336.403 41.0083 338.383 63.3899 328.685 83.9587C328.362 84.5664 328.024 85.1392 327.715 85.6423L327.485 85.975C317.25 100.764 308.436 113.5 309.501 127.913C310.014 133.723 311.954 136.836 317.053 138.312C322.161 139.73 329.132 138.861 335.336 136.963C336.038 136.746 336.776 136.487 337.518 136.203C340.206 135.169 342.968 133.844 345.872 132.45C347.647 131.599 349.476 130.721 351.373 129.87C353.912 128.758 356.512 127.619 359.903 126.876C361.608 126.538 363.587 126.226 366.15 126.701C368.686 127.087 371.797 129.1 373.174 131.45C374.051 132.814 374.684 134.233 375.143 135.615C378.286 149.211 374.813 159.544 371.399 169.7V169.7V169.7V169.7C370.806 171.465 370.213 173.229 369.659 175C361.955 194.651 350.748 211.031 335.667 225.737C334.545 226.764 333.39 227.784 332.23 228.771C322.882 236.669 312.716 243.437 301.377 248.642C300.437 249.011 299.479 249.399 298.504 249.794C287.916 254.081 275.25 259.21 260.921 250.302C258.429 248.434 256.265 245.978 254.74 243.199C248.981 231.897 251.483 219.27 259.296 210.709C258.888 210.753 258.482 210.801 258.079 210.852C257.4 210.943 256.723 211.028 256.049 211.111C244.805 212.22 234.739 211.32 224.251 209.599C219.049 208.674 213.815 207.464 208.535 205.417C208.093 205.219 207.64 205.022 207.178 204.821C202.369 202.731 196.647 200.244 193.4 192.358C192.89 190.867 192.625 189.278 192.626 187.694C192.651 185.105 192.776 182.01 194.371 178.565C195.973 175.088 198.915 172.666 201.183 171.243C204.887 168.977 208.133 167.607 211.314 166.264C212.17 165.903 213.02 165.544 213.874 165.171C221.834 161.821 229.557 158.385 237.169 154.593C245.864 150.351 252.11 144.13 252.162 136.73C252.46 129.051 247.628 120.319 241.883 111.65C241.67 111.32 241.458 110.997 241.249 110.68C232.802 96.835 226.449 81.8051 227.446 64.5798C227.737 60.3815 228.542 56.1937 229.908 52.2145C235.11 36.9265 245.333 24.2508 256.876 14.9147ZM291.684 203.152C299.859 199.001 307.294 193.919 314.353 188.643C320.492 184.067 326.244 178.551 330.828 172.057C331.123 171.642 331.412 171.221 331.698 170.796C330.896 174.314 329.881 177.861 328.745 181.366C325.33 191.668 320.852 202.368 315.134 210.248C314.173 211.52 313.082 212.829 311.949 214.108C302.24 225.066 287.063 236.278 277.371 234.023C272.462 232.933 270.687 228.184 272.988 222.219C273.559 220.739 274.38 219.185 275.467 217.593L275.497 217.55L275.521 217.514C275.74 217.16 275.967 216.807 276.203 216.455C276.936 215.359 277.757 214.271 278.707 213.177C281.457 210.012 285.412 206.674 291.684 203.152ZM219.442 169.979C224.893 167.694 231.694 164.783 240.127 160.694C271.933 145.273 256.364 120.563 248.48 108.051L248.315 107.789L248.206 107.616C248.007 107.3 247.814 106.993 247.627 106.694C240.186 94.7878 228.807 57.2859 264.769 25.9333L265.627 25.194C283.666 9.83657 309.927 9.59403 319.127 25.194C330.627 44.694 327.963 68.315 321.627 80.194C320.815 81.7165 319.447 83.7128 317.803 86.1119C311.347 95.5314 300.635 111.16 302.627 128.694C305.127 150.694 329.127 145.194 337.127 142.694C340.782 141.552 344.766 139.639 348.651 137.774C357.085 133.724 365.046 129.901 368.127 134.694C372.627 141.694 370.127 155.694 363.627 172.694C357.127 189.694 341.627 210.194 330.627 220.194C310.441 238.545 279.127 255.194 265.127 244.694C254.628 236.819 258.128 219.694 269.127 212.694C259.387 226.694 264.627 239.194 275.627 241.694C292.383 245.502 313.54 224.92 321.127 214.694C333.284 198.309 346.627 154.194 337.127 150.694C334.606 149.765 333.599 151.899 331.732 155.855C328.939 161.773 324.221 171.77 309.627 181.694C284.627 198.694 270.127 202.194 255.127 204.194C240.127 206.194 199.128 202.694 199.127 187.694C199.127 178.464 203.137 176.789 217.187 170.922L217.222 170.907L217.735 170.693L218.052 170.561L218.852 170.226L218.873 170.217L219.296 170.04L219.442 169.979Z" fill="#4F071A"/>
</svg>
